<svg width="53" height="55" viewBox="0 0 53 55" fill="none" xmlns="http://www.w3.org/2000/svg">
<path d="M37.542 4.58325H15.4587C9.36052 4.58325 4.41699 9.71332 4.41699 16.0416V38.9583C4.41699 45.2865 9.36052 50.4166 15.4587 50.4166H37.542C43.6401 50.4166 48.5837 45.2865 48.5837 38.9583V16.0416C48.5837 9.71332 43.6401 4.58325 37.542 4.58325Z" stroke="#2E3093" stroke-width="4" stroke-linecap="round" stroke-linejoin="round"/>
<path d="M35.3328 26.0562C35.6054 27.9634 35.2915 29.9113 34.4357 31.6227C33.58 33.3341 32.226 34.7219 30.5664 35.5888C28.9068 36.4556 27.0261 36.7574 25.1917 36.4511C23.3573 36.1447 21.6627 35.246 20.349 33.8826C19.0352 32.5193 18.1691 30.7607 17.8739 28.8571C17.5787 26.9535 17.8695 25.0018 18.7048 23.2796C19.5401 21.5573 20.8775 20.1523 22.5267 19.2643C24.1759 18.3762 26.0529 18.0505 27.8908 18.3333C29.7655 18.6218 31.5011 19.5283 32.8412 20.919C34.1813 22.3097 35.0549 24.1108 35.3328 26.0562Z" stroke="#2E3093" stroke-width="4" stroke-linecap="round" stroke-linejoin="round"/>
<path d="M38.6455 14.8958H38.6676" stroke="#2E3093" stroke-width="4" stroke-linecap="round" stroke-linejoin="round"/>
</svg>
