<svg width="508" height="308" viewBox="0 0 508 308" fill="none" xmlns="http://www.w3.org/2000/svg">
<path d="M114.062 94.4877V94.3529C114.062 93.8358 113.854 93.3401 113.485 92.9745C113.116 92.6088 112.616 92.4032 112.094 92.4026H108.156C107.905 92.4033 107.657 92.4519 107.424 92.5458C107.312 92.1327 107.066 91.7676 106.724 91.5067C106.382 91.2458 105.963 91.1038 105.531 91.1024H101.594C101.343 91.1031 101.094 91.1517 100.862 91.2456C100.75 90.8325 100.504 90.4674 100.162 90.2065C99.8197 89.9456 99.4005 89.8036 98.9688 89.8022H95.0313C94.5996 89.8036 94.1803 89.9456 93.8382 90.2065C93.4961 90.4674 93.2502 90.8325 93.1385 91.2456C92.906 91.1517 92.6574 91.1031 92.4063 91.1024H88.4688C88.0371 91.1038 87.6178 91.2458 87.2757 91.5067C86.9337 91.7676 86.6878 92.1327 86.576 92.5458C86.3435 92.4519 86.0949 92.4033 85.8438 92.4026H81.9063C81.3843 92.4032 80.8839 92.6088 80.5148 92.9745C80.1457 93.3401 79.9381 93.8358 79.9376 94.3529V94.4682C79.4604 94.3701 78.9672 94.3787 78.4939 94.4935C78.0206 94.6084 77.5791 94.8265 77.2018 95.1319C76.8244 95.4374 76.5207 95.8225 76.3128 96.2591C76.1049 96.6957 75.9981 97.1727 76.0001 97.6555V104.755C76.0011 105.241 76.1126 105.721 76.3261 106.159C76.5397 106.597 76.8499 106.982 77.2339 107.285C77.6179 107.588 78.0658 107.802 78.5444 107.911C79.023 108.019 79.5202 108.02 79.9991 107.912C91.2116 105.494 102.819 105.499 114.029 107.926C114.259 107.975 114.494 108 114.729 108C115.597 107.999 116.429 107.657 117.043 107.048C117.656 106.439 118 105.615 118 104.755V97.6422C118.001 97.1578 117.892 96.6795 117.68 96.243C117.468 95.8064 117.16 95.4229 116.777 95.1211C116.398 94.8262 115.959 94.6167 115.49 94.5073C115.022 94.3979 114.534 94.3912 114.062 94.4877ZM107.5 94.3529C107.5 94.1806 107.569 94.0154 107.692 93.8935C107.815 93.7716 107.982 93.703 108.156 93.7028H112.094C112.268 93.703 112.435 93.7716 112.558 93.8935C112.681 94.0154 112.75 94.1806 112.75 94.3529V97.6034C112.75 98.2931 112.473 98.9545 111.981 99.4422C111.489 99.9299 110.821 100.204 110.125 100.204C109.429 100.204 108.761 99.9299 108.269 99.4422C107.777 98.9545 107.5 98.2931 107.5 97.6034V94.3529ZM100.938 93.0527C100.938 92.8804 101.007 92.7151 101.13 92.5933C101.253 92.4714 101.42 92.4028 101.594 92.4026H105.531C105.705 92.4028 105.872 92.4714 105.995 92.5933C106.118 92.7151 106.187 92.8804 106.188 93.0527V97.6034C106.188 98.2931 105.911 98.9545 105.419 99.4422C104.926 99.9299 104.259 100.204 103.563 100.204C102.866 100.204 102.199 99.9299 101.706 99.4422C101.214 98.9545 100.938 98.2931 100.938 97.6034V93.0527ZM94.375 91.7525C94.3753 91.5802 94.4445 91.4149 94.5675 91.2931C94.6905 91.1712 94.8573 91.1026 95.0313 91.1024H98.9688C99.1428 91.1026 99.3095 91.1712 99.4326 91.2931C99.5556 91.4149 99.6248 91.5802 99.625 91.7525V97.6034C99.625 98.2931 99.3485 98.9545 98.8562 99.4422C98.3639 99.9299 97.6962 100.204 97 100.204C96.3038 100.204 95.6362 99.9299 95.1439 99.4422C94.6516 98.9545 94.375 98.2931 94.375 97.6034V91.7525ZM87.8126 93.0527C87.8128 92.8804 87.882 92.7151 88.005 92.5933C88.128 92.4714 88.2948 92.4028 88.4688 92.4026H92.4063C92.5803 92.4028 92.7471 92.4714 92.8701 92.5933C92.9931 92.7151 93.0623 92.8804 93.0625 93.0527V97.6034C93.0625 98.2931 92.786 98.9545 92.2937 99.4422C91.8014 99.9299 91.1337 100.204 90.4375 100.204C89.7414 100.204 89.0737 99.9299 88.5814 99.4422C88.0891 98.9545 87.8126 98.2931 87.8126 97.6034V93.0527ZM81.2501 94.3529C81.2503 94.1806 81.3195 94.0154 81.4425 93.8935C81.5655 93.7716 81.7323 93.703 81.9063 93.7028H85.8438C86.0178 93.703 86.1846 93.7716 86.3076 93.8935C86.4306 94.0154 86.4998 94.1806 86.5001 94.3529V97.6034C86.5001 98.2931 86.2235 98.9545 85.7312 99.4422C85.2389 99.9299 84.5712 100.204 83.8751 100.204C83.1789 100.204 82.5112 99.9299 82.0189 99.4422C81.5266 98.9545 81.2501 98.2931 81.2501 97.6034V94.3529ZM116.687 104.755C116.688 105.045 116.622 105.332 116.496 105.594C116.369 105.856 116.185 106.087 115.957 106.269C115.729 106.451 115.462 106.581 115.177 106.647C114.892 106.714 114.595 106.717 114.309 106.655C102.913 104.188 91.1137 104.184 79.7158 106.643C79.426 106.708 79.1252 106.707 78.8356 106.641C78.546 106.575 78.2751 106.446 78.0432 106.262C77.8148 106.081 77.6304 105.852 77.5039 105.591C77.3774 105.33 77.312 105.044 77.3126 104.755V97.6554C77.311 97.3583 77.3781 97.0646 77.5087 96.7971C77.6393 96.5296 77.83 96.2952 78.0662 96.1119C78.3023 95.9286 78.5777 95.8013 78.8712 95.7397C79.1647 95.6781 79.4685 95.6839 79.7594 95.7566L79.9376 95.793V97.6034C79.9368 98.4419 80.2091 99.2582 80.7139 99.9312C81.2187 100.604 81.9292 101.098 82.7398 101.339C83.5504 101.58 84.4179 101.556 85.2135 101.27C86.0092 100.984 86.6905 100.452 87.1563 99.7517C87.5139 100.29 88.001 100.732 88.5737 101.038C89.1464 101.344 89.7869 101.504 90.4375 101.504C91.0882 101.504 91.7287 101.344 92.3014 101.038C92.8741 100.732 93.3612 100.29 93.7188 99.7517C94.0764 100.29 94.5635 100.732 95.1362 101.038C95.7089 101.344 96.3494 101.504 97 101.504C97.6507 101.504 98.2911 101.344 98.8639 101.038C99.4366 100.732 99.9236 100.29 100.281 99.7517C100.639 100.29 101.126 100.732 101.699 101.038C102.271 101.344 102.912 101.504 103.563 101.504C104.213 101.504 104.854 101.344 105.426 101.038C105.999 100.732 106.486 100.29 106.844 99.7517C107.31 100.452 107.991 100.984 108.787 101.27C109.582 101.556 110.45 101.58 111.26 101.339C112.071 101.098 112.781 100.604 113.286 99.9312C113.791 99.2582 114.063 98.4419 114.062 97.6034V95.8001C114.135 95.7849 114.197 95.7724 114.284 95.754C114.574 95.6889 114.875 95.6894 115.165 95.7555C115.454 95.8216 115.725 95.9515 115.957 96.1356C116.185 96.316 116.37 96.5452 116.496 96.8061C116.623 97.0669 116.688 97.3527 116.687 97.6422V104.755ZM116.77 69.7088C116.39 69.4058 115.946 69.1918 115.471 69.0828C114.996 68.9737 114.502 68.9724 114.027 69.079C102.816 71.5097 91.208 71.5095 79.9978 69.0784C79.5145 68.9738 79.0136 68.9782 78.5322 69.0912C78.0507 69.2041 77.6011 69.4228 77.2164 69.7311C76.8361 70.0337 76.5294 70.4172 76.3188 70.8531C76.1083 71.289 75.9993 71.7662 76.0001 72.2495V79.3486C75.9968 79.8311 76.103 80.3081 76.3108 80.7445C76.5187 81.1808 76.8228 81.5653 77.2008 81.8696C77.5788 82.1739 78.021 82.3901 78.4947 82.5023C78.9684 82.6146 79.4615 82.6199 79.9376 82.518V82.6467C79.9381 83.1638 80.1457 83.6595 80.5148 84.0252C80.8839 84.3908 81.3843 84.5965 81.9063 84.597H85.8438C86.0949 84.5964 86.3435 84.5478 86.576 84.4539C86.6878 84.8669 86.9337 85.2321 87.2758 85.4929C87.6179 85.7538 88.0371 85.8958 88.4688 85.8972H92.4063C92.6574 85.8965 92.906 85.8479 93.1385 85.754C93.2502 86.1671 93.4961 86.5322 93.8382 86.7931C94.1803 87.054 94.5996 87.196 95.0313 87.1974H98.9688C99.4005 87.196 99.8197 87.054 100.162 86.7931C100.504 86.5322 100.75 86.1671 100.862 85.754C101.094 85.8479 101.343 85.8965 101.594 85.8972H105.531C105.963 85.8958 106.382 85.7538 106.724 85.4929C107.066 85.232 107.312 84.8669 107.424 84.4538C107.657 84.5477 107.905 84.5963 108.156 84.597H112.094C112.616 84.5964 113.116 84.3907 113.485 84.0251C113.854 83.6595 114.062 83.1637 114.062 82.6467V82.526C114.276 82.5696 114.492 82.5925 114.71 82.5946C115.465 82.5946 116.197 82.3377 116.784 81.867C117.164 81.5644 117.471 81.181 117.681 80.745C117.892 80.3091 118.001 79.8318 118 79.3485V72.2494C118.001 71.7615 117.891 71.2796 117.678 70.8396C117.465 70.3997 117.155 70.0131 116.77 69.7088ZM86.5001 82.6467C86.4998 82.819 86.4306 82.9842 86.3076 83.1061C86.1846 83.228 86.0178 83.2965 85.8438 83.2968H81.9063C81.7323 83.2965 81.5655 83.228 81.4425 83.1061C81.3195 82.9842 81.2503 82.819 81.2501 82.6467V79.3962C81.2501 78.7065 81.5266 78.0451 82.0189 77.5574C82.5112 77.0697 83.1789 76.7958 83.8751 76.7958C84.5712 76.7958 85.2389 77.0697 85.7312 77.5574C86.2235 78.0451 86.5001 78.7065 86.5001 79.3962V82.6467ZM93.0625 83.9469C93.0623 84.1192 92.9931 84.2844 92.8701 84.4063C92.7471 84.5282 92.5803 84.5967 92.4063 84.597H88.4688C88.2948 84.5967 88.128 84.5282 88.005 84.4063C87.882 84.2844 87.8128 84.1192 87.8126 83.9469V79.3962C87.8126 78.7065 88.0891 78.0451 88.5814 77.5574C89.0737 77.0697 89.7414 76.7958 90.4375 76.7958C91.1337 76.7958 91.8014 77.0697 92.2937 77.5574C92.786 78.0451 93.0625 78.7065 93.0625 79.3962V83.9469ZM99.625 85.2471C99.6248 85.4194 99.5556 85.5846 99.4326 85.7065C99.3095 85.8284 99.1428 85.8969 98.9688 85.8972H95.0313C94.8573 85.8969 94.6905 85.8284 94.5675 85.7065C94.4445 85.5846 94.3753 85.4194 94.375 85.2471V79.3962C94.375 78.7065 94.6516 78.0451 95.1439 77.5574C95.6362 77.0697 96.3038 76.7958 97 76.7958C97.6962 76.7958 98.3639 77.0697 98.8562 77.5574C99.3485 78.0451 99.625 78.7065 99.625 79.3962V85.2471ZM106.188 83.9469C106.187 84.1192 106.118 84.2844 105.995 84.4063C105.872 84.5282 105.705 84.5967 105.531 84.597H101.594C101.42 84.5967 101.253 84.5282 101.13 84.4063C101.007 84.2844 100.938 84.1192 100.938 83.9469V79.3962C100.938 78.7065 101.214 78.0451 101.706 77.5574C102.199 77.0697 102.866 76.7958 103.563 76.7958C104.259 76.7958 104.926 77.0697 105.419 77.5574C105.911 78.0451 106.188 78.7065 106.188 79.3962V83.9469ZM112.75 82.6467C112.75 82.819 112.681 82.9842 112.558 83.1061C112.435 83.228 112.268 83.2965 112.094 83.2968H108.156C107.982 83.2965 107.815 83.228 107.692 83.1061C107.569 82.9842 107.5 82.819 107.5 82.6467V79.3962C107.5 78.7065 107.777 78.0451 108.269 77.5574C108.761 77.0697 109.429 76.7958 110.125 76.7958C110.821 76.7958 111.489 77.0697 111.981 77.5574C112.473 78.0451 112.75 78.7065 112.75 79.3962V82.6467ZM116.687 79.3485C116.688 79.6377 116.623 79.9232 116.497 80.1839C116.371 80.4447 116.187 80.6741 115.959 80.8551C115.71 81.0491 115.418 81.1835 115.108 81.2477C114.797 81.3118 114.476 81.3042 114.169 81.2252C114.133 81.2177 114.098 81.2122 114.062 81.2048V79.3962C114.063 78.5577 113.791 77.7414 113.286 77.0684C112.781 76.3954 112.071 75.9016 111.26 75.6604C110.45 75.4191 109.582 75.4433 108.787 75.7293C107.991 76.0153 107.31 76.5478 106.844 77.2479C106.486 76.7094 105.999 76.2674 105.426 75.9615C104.854 75.6557 104.213 75.4956 103.563 75.4956C102.912 75.4956 102.271 75.6557 101.699 75.9615C101.126 76.2674 100.639 76.7094 100.281 77.2479C99.9236 76.7094 99.4366 76.2674 98.8639 75.9615C98.2911 75.6557 97.6507 75.4956 97 75.4956C96.3494 75.4956 95.7089 75.6557 95.1362 75.9615C94.5635 76.2674 94.0764 76.7094 93.7188 77.2479C93.3612 76.7094 92.8741 76.2674 92.3014 75.9615C91.7287 75.6557 91.0882 75.4956 90.4375 75.4956C89.7869 75.4956 89.1464 75.6557 88.5737 75.9615C88.001 76.2674 87.5139 76.7094 87.1563 77.2479C86.6905 76.5478 86.0092 76.0153 85.2135 75.7293C84.4179 75.4433 83.5504 75.4191 82.7398 75.6604C81.9292 75.9016 81.2187 76.3954 80.7139 77.0684C80.2091 77.7414 79.9368 78.5577 79.9376 79.3962V81.1989L79.6889 81.25C79.4047 81.3138 79.1096 81.3134 78.8256 81.2488C78.5416 81.1842 78.2759 81.057 78.0483 80.8767C77.8173 80.6934 77.6312 80.4607 77.5038 80.1961C77.3764 79.9314 77.311 79.6417 77.3126 79.3485V72.2494C77.3122 71.9603 77.3774 71.6748 77.5034 71.4141C77.6294 71.1533 77.813 70.9239 78.0406 70.7429C78.2724 70.5566 78.5436 70.4245 78.8341 70.3562C79.1246 70.288 79.4268 70.2854 79.7184 70.3487C91.1145 72.8194 102.915 72.8192 114.311 70.3481C114.595 70.2849 114.889 70.2859 115.173 70.3509C115.456 70.416 115.721 70.5435 115.948 70.7239C116.179 70.9065 116.366 71.1386 116.494 71.4028C116.622 71.667 116.688 71.9564 116.687 72.2495V79.3485Z" fill="black"/>
<g filter="url(#filter0_d_2059_2)">
<path d="M348.118 0C347.96 2.15714 348.283 4.32642 349.066 6.35156C349.861 8.40599 351.107 10.2602 352.714 11.7764C354.321 13.2926 356.246 14.4321 358.349 15.1113L358.057 15.6182C356.885 17.6534 356.574 20.074 357.194 22.3496C357.814 24.6254 359.314 26.5703 361.364 27.7568L376.838 36.6904C377.826 37.2576 378.914 37.6309 380.041 37.7891C379.542 39.6675 379.679 41.6616 380.431 43.4639C381.183 45.2662 382.508 46.777 384.201 47.7617L399.675 56.6953C400.663 57.2625 401.751 57.6349 402.878 57.793C402.379 59.6715 402.516 61.6664 403.268 63.4688C404.019 65.271 405.345 66.7809 407.038 67.7656L422.513 76.7002C424.212 77.6743 426.182 78.0664 428.119 77.8164C430.056 77.5664 431.852 76.6878 433.229 75.3164C433.93 76.2133 434.796 76.9688 435.781 77.541L451.256 86.4756C452.955 87.4496 454.926 87.8418 456.862 87.5918C458.799 87.3418 460.595 86.4632 461.973 85.0918C462.673 85.9887 463.539 86.7442 464.524 87.3164L479.999 96.25C482.051 97.432 484.485 97.759 486.766 97.1582C489.047 96.5573 490.988 95.0777 492.165 93.0449L492.439 92.5703C493.178 93.2249 493.977 93.8071 494.827 94.3086C497.61 95.9151 500.827 96.5873 504 96.2354V270C504 286.569 490.569 300 474 300H34C17.4315 300 4 286.569 4 270V30C4 13.4315 17.4315 1.03088e-06 34 0H348.118ZM343.636 58.4629C341.583 57.2808 339.149 56.9538 336.868 57.5547C334.587 58.1556 332.646 59.6353 331.47 61.668L331.207 62.1211C329.555 60.6526 327.597 59.5675 325.477 58.9453C323.356 58.3231 321.125 58.179 318.948 58.5244C316.772 58.8698 314.704 59.6959 312.896 60.9414C311.087 62.1872 309.583 63.822 308.494 65.7256L292.371 93.6523C291.271 95.5681 290.618 97.7087 290.463 99.916C290.307 102.124 290.652 104.342 291.473 106.406C292.293 108.47 293.568 110.327 295.202 111.84C296.837 113.353 298.789 114.483 300.915 115.147C350.472 131.075 396.077 157.429 434.621 192.413C435.413 193.128 436.278 193.758 437.202 194.293C440.616 196.259 444.664 196.8 448.457 195.798C452.25 194.796 455.476 192.331 457.428 188.947L473.582 160.969C474.686 159.066 475.342 156.936 475.501 154.738C475.66 152.541 475.319 150.331 474.502 148.276C473.683 146.257 472.433 144.437 470.839 142.942C469.245 141.448 467.345 140.317 465.272 139.626L465.578 139.096C466.75 137.06 467.06 134.639 466.44 132.363C465.82 130.088 464.321 128.143 462.271 126.956L446.797 118.022C445.809 117.455 444.721 117.082 443.594 116.924C444.093 115.045 443.956 113.051 443.204 111.249C442.452 109.447 441.127 107.937 439.434 106.952L423.959 98.0176C422.971 97.4505 421.884 97.078 420.757 96.9199C421.256 95.0414 421.118 93.0465 420.366 91.2441C419.614 89.442 418.29 87.932 416.597 86.9473L401.122 78.0127C399.423 77.0386 397.452 76.6466 395.516 76.8965C393.579 77.1465 391.783 78.0251 390.405 79.3965C389.705 78.4996 388.839 77.7441 387.854 77.1719L372.379 68.2383C370.679 67.2641 368.709 66.8712 366.772 67.1211C364.836 67.3711 363.04 68.2497 361.662 69.6211C360.962 68.7242 360.095 67.9687 359.11 67.3965L343.636 58.4629ZM320.12 64.3408C321.464 64.1557 322.836 64.2796 324.129 64.7031C325.422 65.1267 326.603 65.8393 327.581 66.7852L328.198 67.333L324.087 74.4551C322.18 77.7516 321.395 81.5804 321.851 85.373C322.306 89.1659 323.977 92.7206 326.614 95.5088C329.252 98.297 332.717 100.17 336.493 100.851C340.269 101.531 344.157 100.981 347.577 99.2842C347.76 102.214 348.67 105.058 350.226 107.561C351.782 110.063 353.935 112.147 356.492 113.623C359.049 115.099 361.93 115.922 364.875 116.019C367.82 116.115 370.739 115.482 373.367 114.175C373.55 117.104 374.46 119.949 376.016 122.451C377.572 124.954 379.725 127.036 382.282 128.513C384.839 129.989 387.72 130.812 390.665 130.908C393.61 131.005 396.529 130.371 399.157 129.064C399.34 131.994 400.25 134.838 401.806 137.341C403.362 139.843 405.515 141.926 408.072 143.402C410.629 144.879 413.51 145.702 416.455 145.799C419.401 145.895 422.319 145.261 424.947 143.954C425.188 147.765 426.656 151.406 429.133 154.336C431.61 157.266 434.965 159.33 438.698 160.221C442.432 161.111 446.345 160.78 449.857 159.278C453.37 157.776 456.294 155.182 458.195 151.882L462.291 144.788C462.612 144.894 462.884 144.985 463.268 145.11C464.554 145.512 465.736 146.196 466.724 147.113C467.712 148.03 468.481 149.156 468.975 150.406C469.463 151.634 469.667 152.954 469.571 154.268C469.476 155.581 469.083 156.853 468.424 157.99L452.271 185.97C451.612 187.113 450.702 188.092 449.61 188.836C448.519 189.58 447.272 190.07 445.961 190.27C444.65 190.469 443.308 190.373 442.035 189.989C440.762 189.605 439.59 188.941 438.604 188.049C399.422 152.488 353.062 125.7 302.686 109.51C301.399 109.108 300.218 108.424 299.229 107.508C298.241 106.591 297.471 105.466 296.978 104.216C296.49 102.987 296.286 101.667 296.382 100.354C296.477 99.0401 296.87 97.7673 297.529 96.6299L313.652 68.7031C314.321 67.5304 315.252 66.5276 316.373 65.7715C317.494 65.0155 318.776 64.5259 320.12 64.3408ZM441.588 122.835C442.348 122.635 443.16 122.743 443.844 123.137L459.317 132.071C460 132.467 460.5 133.115 460.707 133.873C460.914 134.632 460.81 135.439 460.42 136.117L453.037 148.904C451.471 151.617 448.882 153.592 445.84 154.394C442.798 155.195 439.551 154.757 436.815 153.178C434.079 151.598 432.078 149.005 431.251 145.97C430.424 142.934 430.839 139.705 432.405 136.992L439.788 124.205C440.18 123.528 440.828 123.035 441.588 122.835ZM418.751 102.83C419.511 102.63 420.322 102.739 421.006 103.133L436.48 112.066C437.164 112.462 437.663 113.111 437.87 113.869C438.077 114.627 437.973 115.434 437.583 116.112L427.247 134.015C425.681 136.727 423.092 138.701 420.05 139.503C417.008 140.304 413.761 139.868 411.025 138.288C408.289 136.708 406.288 134.115 405.461 131.08C404.634 128.045 405.049 124.816 406.615 122.103L416.951 104.201C417.344 103.524 417.991 103.03 418.751 102.83ZM97 49C74.9086 49 57 66.9086 57 89C57 111.091 74.9086 129 97 129C119.091 129 137 111.091 137 89C137 66.9086 119.091 49 97 49ZM395.913 82.8252C396.673 82.6249 397.485 82.7341 398.169 83.1279L413.644 92.0615C414.327 92.4572 414.827 93.1058 415.033 93.8643C415.24 94.6227 415.137 95.43 414.746 96.1084L401.457 119.124C399.891 121.837 397.302 123.812 394.26 124.613C391.218 125.415 387.971 124.978 385.235 123.398C382.499 121.819 380.498 119.226 379.671 116.19C378.844 113.155 379.259 109.926 380.825 107.213L394.113 84.1963C394.506 83.5189 395.153 83.0255 395.913 82.8252ZM367.17 73.0498C367.93 72.8495 368.742 72.9588 369.426 73.3525L384.9 82.2861C385.584 82.6818 386.083 83.3303 386.29 84.0889C386.497 84.8474 386.393 85.6545 386.003 86.333L375.667 104.234C374.101 106.947 371.512 108.922 368.47 109.724C365.428 110.525 362.181 110.087 359.445 108.508C356.709 106.928 354.707 104.336 353.88 101.301C353.053 98.2654 353.469 95.0353 355.035 92.3223L365.37 74.4209C365.762 73.7435 366.41 73.2501 367.17 73.0498ZM338.427 63.2754C339.187 63.0751 339.998 63.1834 340.683 63.5771L356.157 72.5117C356.84 72.9074 357.34 73.5551 357.547 74.3135C357.754 75.0719 357.65 75.8792 357.26 76.5576L349.877 89.3447C348.311 92.0576 345.722 94.0315 342.68 94.833C339.638 95.6344 336.391 95.1976 333.655 93.6182C330.919 92.0385 328.917 89.4455 328.09 86.4102C327.263 83.3749 327.679 80.1456 329.245 77.4326L336.627 64.6455C337.019 63.9682 337.667 63.4758 338.427 63.2754ZM480.955 59.8799C483.997 59.0785 487.244 59.5152 489.979 61.0947C492.715 62.6744 494.717 65.2674 495.544 68.3027C496.371 71.338 495.956 74.5673 494.39 77.2803L487.007 90.0674C486.615 90.7447 485.967 91.2372 485.207 91.4375C484.447 91.6377 483.635 91.5296 482.951 91.1357L467.478 82.2021C466.794 81.8065 466.295 81.1579 466.088 80.3994C465.881 79.6409 465.984 78.8338 466.375 78.1553L473.758 65.3682C475.324 62.6554 477.913 60.6813 480.955 59.8799ZM427.6 0C451.422 15.9975 477.06 29.1945 504 39.2959V90.2461C503.897 90.2654 503.794 90.2861 503.689 90.3018C502.268 90.4987 500.817 90.3661 499.451 89.9141C498.085 89.462 496.839 88.7026 495.812 87.6953C495.688 87.5849 495.561 87.4823 495.439 87.373L499.548 80.2588C501.455 76.9621 502.239 73.1327 501.783 69.3398C501.328 65.547 499.657 61.9923 497.02 59.2041C494.382 56.4161 490.918 54.5425 487.142 53.8623C483.365 53.1821 479.478 53.7318 476.058 55.4287C475.875 52.4992 474.965 49.655 473.409 47.1523C471.853 44.6497 469.7 42.5661 467.143 41.0898C464.586 39.6136 461.705 38.7907 458.76 38.6943C455.814 38.598 452.896 39.2314 450.268 40.5381C450.085 37.6088 449.175 34.7651 447.619 32.2627C446.063 29.7601 443.909 27.6765 441.353 26.2002C438.796 24.724 435.915 23.9011 432.97 23.8047C430.024 23.7084 427.106 24.3417 424.478 25.6484C424.295 22.7188 423.384 19.8747 421.828 17.3721C420.272 14.8697 418.119 12.7867 415.562 11.3105C413.005 9.83426 410.124 9.01036 407.179 8.91406C404.233 8.81783 401.316 9.45213 398.688 10.7588C398.447 6.948 396.978 3.30722 394.501 0.376953C394.393 0.248931 394.28 0.124688 394.169 0H427.6ZM455.165 44.9893C458.207 44.1878 461.453 44.6255 464.189 46.2051C466.925 47.7847 468.927 50.3777 469.754 53.4131C470.581 56.4483 470.166 59.6777 468.6 62.3906L458.264 80.292C457.871 80.9694 457.224 81.4628 456.464 81.6631C455.704 81.8632 454.892 81.7542 454.208 81.3604L438.734 72.4268C438.051 72.0311 437.551 71.3826 437.345 70.624C437.138 69.8655 437.241 69.0583 437.632 68.3799L447.968 50.4785C449.534 47.7656 452.123 45.7907 455.165 44.9893ZM429.375 30.0996C432.417 29.2982 435.663 29.7358 438.399 31.3154C441.135 32.895 443.137 35.4873 443.964 38.5225C444.791 41.5578 444.376 44.7879 442.81 47.501L429.521 70.5166C429.128 71.1941 428.481 71.6874 427.721 71.8877C426.961 72.0878 426.15 71.9787 425.466 71.585L409.991 62.6514C409.308 62.2557 408.808 61.6072 408.602 60.8486C408.395 60.0902 408.498 59.2829 408.889 58.6045L422.178 35.5889C423.744 32.8758 426.333 30.901 429.375 30.0996ZM403.585 15.21C406.627 14.4086 409.873 14.8452 412.609 16.4248C415.345 18.0044 417.347 20.5975 418.174 23.6328C419.001 26.6681 418.586 29.8974 417.02 32.6104L406.684 50.5117C406.291 51.1892 405.644 51.6825 404.884 51.8828C404.124 52.0831 403.312 51.9739 402.628 51.5801L387.154 42.6465C386.471 42.2509 385.971 41.6031 385.765 40.8447C385.558 40.0863 385.661 39.279 386.052 38.6006L396.387 20.6982C397.953 17.9853 400.543 16.0114 403.585 15.21ZM474 0C490.569 0 504 13.4315 504 30V32.9824C481.043 24.2166 459.063 13.1581 438.39 0H474ZM382.111 0C383.753 0.177671 385.359 0.692218 386.819 1.53516C389.555 3.11479 391.557 5.70789 392.384 8.74316C393.211 11.7784 392.796 15.0078 391.229 17.7207L383.847 30.5078C383.454 31.1851 382.807 31.6776 382.047 31.8779C381.287 32.0782 380.475 31.97 379.791 31.5762L364.317 22.6416C363.634 22.246 363.134 21.5982 362.928 20.8398C362.721 20.0813 362.824 19.2742 363.215 18.5957L370.597 5.80859C372.163 3.09556 374.753 1.12078 377.795 0.319336C378.363 0.169731 378.938 0.0638876 379.516 0H382.111ZM367.471 0C366.706 0.869686 366.023 1.81669 365.438 2.83105L361.345 9.92285L360.251 9.55859C358.989 9.16492 357.831 8.49423 356.861 7.5957C355.892 6.69702 355.136 5.59386 354.651 4.36816C354.16 3.123 353.957 1.78511 354.058 0.455078C354.069 0.30272 354.086 0.151112 354.105 0H367.471Z" fill="#03B6AB" fill-opacity="0.23" shape-rendering="crispEdges"/>
</g>
<defs>
<filter id="filter0_d_2059_2" x="0" y="0" width="508" height="308" filterUnits="userSpaceOnUse" color-interpolation-filters="sRGB">
<feFlood flood-opacity="0" result="BackgroundImageFix"/>
<feColorMatrix in="SourceAlpha" type="matrix" values="0 0 0 0 0 0 0 0 0 0 0 0 0 0 0 0 0 0 127 0" result="hardAlpha"/>
<feOffset dy="4"/>
<feGaussianBlur stdDeviation="2"/>
<feComposite in2="hardAlpha" operator="out"/>
<feColorMatrix type="matrix" values="0 0 0 0 0 0 0 0 0 0 0 0 0 0 0 0 0 0 0.25 0"/>
<feBlend mode="normal" in2="BackgroundImageFix" result="effect1_dropShadow_2059_2"/>
<feBlend mode="normal" in="SourceGraphic" in2="effect1_dropShadow_2059_2" result="shape"/>
</filter>
</defs>
</svg>
