<svg width="508" height="308" viewBox="0 0 508 308" fill="none" xmlns="http://www.w3.org/2000/svg">
<g filter="url(#filter0_d_2063_4)">
<path d="M299.554 76.2969C296.938 80.8278 296.229 86.213 297.583 91.2666C298.937 96.3198 302.243 100.628 306.773 103.244L437.146 178.516C441.677 181.131 447.062 181.84 452.115 180.486C457.169 179.132 461.478 175.826 464.094 171.295L504 102.176V270C504 286.569 490.569 300 474 300H34C17.4315 300 4 286.569 4 270V30C4 13.4315 17.4315 6.44261e-07 34 0H343.604L299.554 76.2969ZM398.472 11.3271C399.34 11.8285 400.402 11.8625 401.301 11.418L424.394 0H429.032L467.569 22.25L469.406 50.7393C469.471 51.7402 470.032 52.643 470.9 53.1445L499.872 69.8711C501.498 70.8098 502.897 72.0624 504 73.5371V90.1758L458.897 168.295C457.077 171.448 454.079 173.748 450.562 174.69C447.046 175.632 443.299 175.139 440.146 173.319L309.773 98.0479C306.621 96.2275 304.32 93.2292 303.378 89.7129C302.436 86.1965 302.929 82.4496 304.749 79.2969L350.531 0H378.852L398.472 11.3271ZM425.141 48.7686C407.705 38.7025 385.41 44.6769 375.344 62.1123C365.278 79.5477 371.252 101.842 388.688 111.908C406.123 121.974 428.417 116 438.483 98.5654C448.55 81.1301 442.576 58.835 425.141 48.7686ZM380.54 65.1123C388.949 50.5467 407.575 45.5556 422.141 53.9648C436.706 62.3745 441.696 80.9999 433.287 95.5654C424.878 110.131 406.253 115.121 391.688 106.712C377.122 98.3025 372.131 79.6779 380.54 65.1123ZM474 0C490.569 6.4426e-07 504 13.4315 504 30V65.3789C503.633 65.1327 503.257 64.8971 502.872 64.6748L475.291 48.751L473.453 20.2617C473.393 19.3232 472.896 18.4711 472.118 17.9551L471.96 17.8564L441.032 0H474ZM400.081 5.32812L390.853 0H410.857L400.081 5.32812Z" fill="#C5EEEB"/>
</g>
<circle cx="85" cy="87" r="40" fill="white"/>
<path d="M106.083 100.417C106.083 101.433 105.68 102.408 104.961 103.127C104.242 103.846 103.267 104.25 102.25 104.25H67.7501C66.7334 104.25 65.7584 103.846 65.0395 103.127C64.3206 102.408 63.9167 101.433 63.9167 100.417V79.3333C63.9167 78.3167 64.3206 77.3416 65.0395 76.6228C65.7584 75.9039 66.7334 75.5 67.7501 75.5H75.4167L79.2501 69.75H90.7501L94.5834 75.5H102.25C103.267 75.5 104.242 75.9039 104.961 76.6228C105.68 77.3416 106.083 78.3167 106.083 79.3333V100.417Z" stroke="black" stroke-width="2" stroke-linecap="round" stroke-linejoin="round"/>
<path d="M84.9999 96.5833C89.2341 96.5833 92.6666 93.1508 92.6666 88.9167C92.6666 84.6825 89.2341 81.25 84.9999 81.25C80.7657 81.25 77.3333 84.6825 77.3333 88.9167C77.3333 93.1508 80.7657 96.5833 84.9999 96.5833Z" stroke="black" stroke-width="2" stroke-linecap="round" stroke-linejoin="round"/>
<defs>
<filter id="filter0_d_2063_4" x="0" y="0" width="508" height="308" filterUnits="userSpaceOnUse" color-interpolation-filters="sRGB">
<feFlood flood-opacity="0" result="BackgroundImageFix"/>
<feColorMatrix in="SourceAlpha" type="matrix" values="0 0 0 0 0 0 0 0 0 0 0 0 0 0 0 0 0 0 127 0" result="hardAlpha"/>
<feOffset dy="4"/>
<feGaussianBlur stdDeviation="2"/>
<feComposite in2="hardAlpha" operator="out"/>
<feColorMatrix type="matrix" values="0 0 0 0 0 0 0 0 0 0 0 0 0 0 0 0 0 0 0.25 0"/>
<feBlend mode="normal" in2="BackgroundImageFix" result="effect1_dropShadow_2063_4"/>
<feBlend mode="normal" in="SourceGraphic" in2="effect1_dropShadow_2063_4" result="shape"/>
</filter>
</defs>
</svg>
