<svg width="508" height="308" viewBox="0 0 508 308" fill="none" xmlns="http://www.w3.org/2000/svg">
<g filter="url(#filter0_d_2062_3)">
<path d="M336.818 0C333.762 8.14932 331.801 17.0025 330.98 26.4072C330.825 28.24 330.243 29.9906 329.278 31.5303C328.313 33.07 326.989 34.3607 325.403 35.3066C318.437 39.4638 309.9 47.1202 308.628 60.0361C308.353 61.2669 307.691 65.248 309.053 70.5957C310.459 76.1426 314.429 84.3141 325.296 91.8262C325.666 92.0816 325.939 92.448 326.07 92.8623C326.201 93.2766 326.181 93.7131 326.014 94.0967L318.47 111.5C318.081 112.398 317.617 113.334 316.962 114.537C310.822 125.84 312.804 138.051 322.695 149.852C330.307 158.935 341 166.006 348.626 170.325C352.795 172.689 357.005 175.12 361.137 177.549L362.022 178.06C362.945 178.592 363.92 179.139 364.94 179.694C364.946 179.698 364.951 179.701 364.957 179.704C365.033 179.748 365.11 179.788 365.188 179.827C372.491 183.778 382.09 188.059 391.835 189.795C407 192.46 418.564 188.076 425.285 177.103C426 175.934 426.58 175.061 427.162 174.277L438.461 159.043C438.709 158.706 439.078 158.471 439.502 158.377C439.926 158.283 440.381 158.337 440.787 158.529C452.717 164.189 461.79 163.531 467.294 161.98C472.606 160.486 475.723 157.923 476.651 157.069C487.201 149.51 489.564 138.287 489.681 130.176C489.704 128.328 490.157 126.534 491.007 124.927C491.857 123.319 493.083 121.938 494.593 120.885C497.926 118.552 501.064 116.086 504 113.498V270C504 286.569 490.569 300 474 300H34C17.4315 300 4 286.569 4 270V30C4 13.4315 17.4315 6.44261e-07 34 0H336.818ZM474 0C490.569 6.4426e-07 504 13.4315 504 30V53.8701C503.026 53.7006 502.04 53.8823 501.237 54.3838C487.936 62.8892 481.311 75.9731 482.076 92.2158C482.548 102.289 485.766 111.296 487.801 116.074C486.213 117.514 484.889 119.21 483.889 121.103C482.517 123.698 481.786 126.594 481.749 129.577C481.655 136.093 479.799 145.085 471.498 150.932C471.326 151.046 471.167 151.179 471.024 151.326C470.469 151.857 461.466 160.012 443.912 151.688C441.818 150.698 439.477 150.419 437.289 150.899C435.101 151.38 433.2 152.589 431.912 154.321L420.613 169.556C419.912 170.5 419.205 171.563 418.389 172.896C413.561 180.777 405.902 183.962 395.024 182.587L405.393 164.631C405.89 163.769 405.999 162.73 405.696 161.742C405.393 160.755 404.702 159.9 403.776 159.365C402.85 158.831 401.764 158.66 400.758 158.892C399.751 159.123 398.906 159.737 398.408 160.599L386.733 180.819C381.516 179.297 376.492 177.135 372.296 175.058L385.455 152.266C385.953 151.404 386.062 150.364 385.759 149.377C385.456 148.39 384.765 147.535 383.839 147C382.913 146.465 381.827 146.295 380.82 146.526C379.814 146.758 378.968 147.372 378.471 148.233L365.195 171.227C365.112 171.178 365.03 171.131 364.949 171.084L364.954 171.075C360.783 168.624 356.533 166.17 352.324 163.783C352.177 163.7 352.027 163.612 351.873 163.524L365.514 139.901C366.011 139.04 366.12 138 365.817 137.013C365.514 136.025 364.823 135.17 363.897 134.636C362.971 134.101 361.886 133.931 360.879 134.162C359.872 134.393 359.027 135.007 358.529 135.869L345.015 159.276C341.108 156.663 336.733 153.379 332.825 149.613L345.573 127.535C346.071 126.673 346.18 125.634 345.877 124.646C345.574 123.659 344.884 122.804 343.958 122.27C343.032 121.735 341.946 121.565 340.939 121.796C339.933 122.027 339.087 122.641 338.59 123.503L327.169 143.282C320.676 134.632 319.655 126.472 324.035 118.408C324.781 117.035 325.348 115.892 325.815 114.812L333.357 97.4121C334.211 95.4307 334.307 93.1815 333.628 91.0479C332.949 88.9142 331.538 87.0281 329.635 85.71C313.648 74.6696 316.209 62.7974 316.392 62.0488C316.448 61.8516 316.484 61.6481 316.497 61.4414C317.41 51.3293 324.277 45.2301 329.865 41.8867C332.43 40.3632 334.572 38.2823 336.134 35.7969C337.271 33.9875 338.076 31.9963 338.529 29.9053C343.684 29.2774 353.098 27.5634 362.06 22.9365C372.397 17.6074 379.444 9.79568 382.879 0H474ZM398.938 87.8291C397.263 87.7507 395.619 88.0767 394.157 88.7783C389.678 90.8763 385.333 93.2117 381.141 95.7734C378.161 97.6055 376.525 100.558 376.659 103.856C376.8 107.23 378.829 110.466 382.093 112.515C383.511 113.405 384.954 114.219 386.349 115.006C386.928 115.322 387.501 115.653 388.072 115.982C388.723 116.358 389.35 116.723 390.016 117.126C390.681 117.529 391.362 117.922 392.053 118.321C392.906 118.814 393.779 119.302 394.663 119.763C397.985 121.485 401.733 121.582 404.689 120.021C407.584 118.493 409.302 115.66 409.408 112.246C409.56 107.216 409.398 102.162 408.924 97.1123C408.785 95.5319 408.242 93.985 407.344 92.6113C406.446 91.2377 405.221 90.08 403.779 89.2432L403.752 89.2275C402.269 88.3882 400.614 87.9075 398.938 87.8291ZM399 95.4746C399.358 95.4843 399.713 95.5812 400.032 95.7568C400.321 95.9249 400.565 96.1595 400.74 96.4375C400.916 96.7154 401.017 97.0278 401.034 97.3447C401.478 102.087 401.631 106.834 401.491 111.559C401.464 112.372 401.145 112.964 400.562 113.271C399.896 113.618 398.991 113.55 398.085 113.08C396.685 112.355 395.31 111.539 393.855 110.678C393.184 110.268 392.5 109.874 391.819 109.48L391.813 109.475C391.22 109.132 390.618 108.803 390.024 108.46C388.657 107.689 387.368 106.96 386.118 106.177C385.176 105.586 384.614 104.801 384.582 104.027C384.55 103.179 385.179 102.614 385.696 102.294C389.654 99.879 393.756 97.6786 397.985 95.7021C398.293 95.5434 398.642 95.465 399 95.4746ZM504 102.405C501.018 105.511 497.735 108.467 494.153 111.268C489.946 100.388 483.909 76.5898 504 62.127V102.405ZM446.615 69.3906C440.263 67.0817 434.459 67.5594 430.278 70.7344C425.895 74.0647 423.754 80.0264 424.694 86.2881C425.895 94.2597 430.182 101.055 437.105 105.946C437.644 106.328 438.201 106.685 438.773 107.015C445.108 110.672 453.01 110.983 459 107.67C461.886 106.037 464.239 103.686 465.832 100.845C467.425 98.0033 468.206 94.7668 468.097 91.4482C467.923 87.4896 466.465 83.6058 463.932 80.3447C461.709 77.5017 458.698 75.0792 454.732 72.9385C452.116 71.5534 449.402 70.367 446.615 69.3906ZM435.424 76.8457C437.509 75.2615 440.475 75.1512 444.239 76.5166C446.628 77.3517 448.955 78.3651 451.2 79.5459C451.484 79.6941 451.751 79.8479 452.018 80.002L452.01 80.0098C454.504 81.4497 456.369 82.9878 457.713 84.7041C459.216 86.6358 460.082 88.9368 460.189 91.2832C460.239 93.2621 459.766 95.19 458.815 96.8848C457.865 98.5794 456.467 99.9858 454.755 100.973C450.842 103.136 445.529 102.696 441.538 99.875C436.44 96.2815 433.407 91.4945 432.545 85.6494C432.011 82.0983 433.167 78.56 435.424 76.8457ZM381.4 32.6953C377.309 32.1315 373.218 32.8112 369.702 34.6396C366.774 36.2045 364.36 38.4982 362.696 41.2988C361.032 44.0994 360.173 47.3126 360.202 50.6279C360.338 57.4774 364.557 64.1656 370.893 67.8232C371.461 68.1516 372.049 68.458 372.651 68.7344C380.349 72.2842 388.388 72.5927 395.885 69.6484C401.778 67.3321 405.87 62.4965 406.562 57.0352C407.222 51.8269 404.733 46.5626 399.558 42.2158C397.315 40.2898 394.926 38.5311 392.414 36.958C388.578 34.5945 384.969 33.2081 381.4 32.6953ZM373.818 41.4141C375.901 40.3301 378.325 39.9255 380.749 40.2568C382.907 40.5621 385.17 41.4067 387.664 42.8467L387.661 42.8574C387.925 43.01 388.192 43.1701 388.468 43.3262C390.613 44.68 392.654 46.19 394.571 47.8408C397.636 50.4178 399.022 53.0441 398.694 55.6396C398.338 58.4512 395.851 61.2217 392.509 62.5352C387.014 64.6974 381.359 64.4682 375.704 61.8623C371.263 59.8148 368.225 55.4334 368.145 50.9648C368.143 48.9884 368.663 47.0748 369.655 45.4043C370.648 43.7339 372.08 42.3609 373.818 41.4141ZM374.205 0C366.965 15.6649 349.076 20.5069 339.518 21.9922C340.629 14.0978 342.614 6.75617 345.458 0H374.205Z" fill="#C5EEEB"/>
</g>
<circle cx="94" cy="99" r="40" fill="white"/>
<path d="M95.132 121.767H94.9297C93.9812 121.76 93.019 121.76 92.0705 121.767C90.336 121.781 87.8035 121.628 85.5999 120.825C82.7368 119.782 81.1887 117.886 81.1225 115.343C81.1157 115.073 81.1026 114.866 81.0804 114.674L80.6512 110.948C80.642 110.865 80.6022 110.788 80.5388 110.73C80.4753 110.672 80.3921 110.637 80.3035 110.63C77.6974 110.418 76.2086 109.411 75.4186 108.6C74.6559 107.818 74.3755 107.071 74.3008 106.833C73.2406 104.495 73.9462 102.34 74.7289 100.939C74.9071 100.62 75.0063 100.268 75.0194 99.9092C75.0324 99.5501 74.9588 99.1928 74.8041 98.8635C73.7963 96.7054 73.195 94.5175 73.0166 92.3631C72.8717 90.6574 73.0005 88.9413 73.3985 87.2708C74.0779 84.4454 75.3103 82.7881 75.3627 82.7192L75.3747 82.7033C81.0661 75.5615 90.2066 75.1837 92.8731 75.2372C93.2898 75.2457 93.7116 75.2457 94.1271 75.2372C96.7941 75.1842 105.934 75.5615 111.626 82.7059L111.638 82.7218C111.691 82.7907 112.923 84.4481 113.602 87.2735C114 88.9439 114.129 90.6601 113.984 92.3657C113.806 94.5207 113.204 96.708 112.197 98.8662C112.042 99.1958 111.969 99.5535 111.982 99.9129C111.996 100.272 112.095 100.624 112.274 100.943C113.057 102.344 113.762 104.5 112.702 106.837C112.628 107.075 112.347 107.823 111.584 108.604C110.794 109.414 109.304 110.423 106.7 110.634C106.611 110.641 106.528 110.677 106.464 110.735C106.401 110.793 106.361 110.869 106.352 110.952L105.923 114.678C105.9 114.87 105.887 115.077 105.88 115.348C105.814 117.892 104.266 119.786 101.403 120.829C99.281 121.596 96.858 121.767 95.132 121.767ZM94.9433 120.283C96.2498 120.294 98.7481 120.197 100.818 119.443C103.098 118.612 104.231 117.259 104.282 115.309C104.29 115 104.306 114.748 104.333 114.517L104.762 110.791C104.812 110.367 105.018 109.972 105.345 109.673C105.673 109.374 106.101 109.191 106.558 109.153C110.391 108.843 111.127 106.556 111.17 106.41C111.179 106.371 111.194 106.332 111.212 106.296C112.056 104.474 111.484 102.75 110.855 101.625C110.567 101.11 110.405 100.542 110.384 99.9619C110.362 99.3818 110.48 98.8046 110.73 98.2726C112.417 94.6596 112.864 91.0905 112.059 87.6652C111.476 85.1874 110.411 83.6849 110.332 83.5757C105.098 77.0169 96.6351 76.6692 94.1624 76.7207C93.723 76.7297 93.2772 76.7297 92.8378 76.7207C90.3651 76.6703 81.9017 77.0175 76.668 83.5762C76.5945 83.6769 75.528 85.181 74.9415 87.6652C74.1361 91.0905 74.5829 94.6612 76.2701 98.2726C76.5199 98.8046 76.6382 99.3818 76.6165 99.9619C76.5948 100.542 76.4336 101.11 76.1447 101.625C75.5177 102.75 74.9443 104.474 75.7885 106.296C75.8067 106.332 75.8208 106.371 75.8307 106.41C75.8734 106.556 76.6093 108.843 80.442 109.153C80.8986 109.191 81.3272 109.374 81.6546 109.672C81.9821 109.971 82.1883 110.365 82.238 110.789L82.6672 114.515C82.694 114.746 82.71 114.998 82.718 115.307C82.7687 117.259 83.9019 118.612 86.1819 119.441C88.2521 120.195 90.751 120.291 92.0569 120.281C93.0145 120.273 93.9857 120.273 94.9433 120.281V120.283Z" fill="black"/>
<path d="M86.5148 121.082C86.3031 121.082 86.1001 121.004 85.9505 120.864C85.8008 120.725 85.7168 120.537 85.7168 120.34V114.74C85.7168 114.544 85.8008 114.355 85.9505 114.216C86.1001 114.076 86.3031 113.998 86.5148 113.998C86.7264 113.998 86.9294 114.076 87.079 114.216C87.2287 114.355 87.3128 114.544 87.3128 114.74V120.34C87.3128 120.537 87.2287 120.725 87.079 120.864C86.9294 121.004 86.7264 121.082 86.5148 121.082ZM91.1563 121.757C90.9446 121.757 90.7417 121.679 90.592 121.54C90.4423 121.4 90.3583 121.212 90.3583 121.015V114.887C90.3583 114.69 90.4423 114.501 90.592 114.362C90.7417 114.223 90.9446 114.145 91.1563 114.145C91.3679 114.145 91.5709 114.223 91.7205 114.362C91.8702 114.501 91.9543 114.69 91.9543 114.887V121.015C91.9543 121.212 91.8702 121.4 91.7205 121.54C91.5709 121.679 91.3679 121.757 91.1563 121.757ZM95.7978 121.759C95.5861 121.759 95.3832 121.68 95.2335 121.541C95.0839 121.402 94.9998 121.213 94.9998 121.017V115.032C94.9998 114.836 95.0839 114.647 95.2335 114.508C95.3832 114.369 95.5861 114.29 95.7978 114.29C96.0094 114.29 96.2124 114.369 96.3621 114.508C96.5117 114.647 96.5958 114.836 96.5958 115.032V121.017C96.5958 121.213 96.5117 121.402 96.3621 121.541C96.2124 121.68 96.0094 121.759 95.7978 121.759ZM100.439 121.096C100.227 121.096 100.024 121.018 99.8745 120.879C99.7248 120.74 99.6407 120.551 99.6407 120.354V115.179C99.6407 114.982 99.7248 114.793 99.8745 114.654C100.024 114.515 100.227 114.437 100.439 114.437C100.65 114.437 100.853 114.515 101.003 114.654C101.153 114.793 101.237 114.982 101.237 115.179V120.354C101.237 120.551 101.153 120.74 101.003 120.879C100.853 121.018 100.65 121.096 100.439 121.096ZM101.257 102.01C101.126 102.01 100.995 102.004 100.865 101.992C99.1944 101.839 97.7871 101.099 96.7924 99.8526C96.0115 98.8732 95.7887 97.6404 96.2105 96.6366C96.6129 95.6794 97.5602 95.0238 98.8775 94.7911C99.4518 94.6828 100.034 94.6175 100.62 94.5961C101.511 94.5706 102.267 94.6878 102.93 94.9549C103.687 95.2628 104.321 95.7839 104.742 96.4447C105.089 97.0023 105.276 97.6337 105.284 98.2779C105.292 98.9221 105.121 99.5574 104.788 100.122C104.09 101.282 102.704 102.01 101.257 102.01ZM100.854 96.0742C100.793 96.0742 100.732 96.0742 100.668 96.0769C100.167 96.0966 99.6676 96.1533 99.1756 96.2465C98.3953 96.3848 97.8977 96.697 97.697 97.1745C97.4799 97.6913 97.632 98.4115 98.0749 98.967C98.8011 99.8828 99.7946 100.403 101.024 100.514C101.987 100.603 102.942 100.153 103.398 99.3952C103.594 99.0568 103.694 98.6778 103.69 98.2935C103.685 97.9093 103.575 97.5324 103.371 97.1984C103.12 96.8071 102.744 96.4986 102.295 96.3164C101.895 96.1553 101.423 96.0764 100.853 96.0764L100.854 96.0742ZM85.7436 102.01C84.2958 102.01 82.9107 101.282 82.2096 100.122C81.8765 99.5574 81.7058 98.9221 81.7139 98.2779C81.722 97.6337 81.9086 97.0023 82.2557 96.4447C82.6773 95.7839 83.3113 95.2628 84.0683 94.9549C84.7307 94.6899 85.4865 94.5706 86.378 94.5961C86.9642 94.6171 87.5477 94.682 88.1227 94.79C89.44 95.0227 90.3873 95.6783 90.7898 96.6355C91.2116 97.6393 90.9887 98.8721 90.2078 99.8515C89.2143 101.097 87.8058 101.839 86.1351 101.992C86.0046 102.004 85.8735 102.01 85.7436 102.01ZM86.1465 96.0742C85.5765 96.0742 85.1052 96.1532 84.705 96.3143C84.2567 96.4973 83.8814 96.8063 83.6317 97.1978C83.4274 97.5319 83.3178 97.9087 83.313 98.293C83.3082 98.6772 83.4085 99.0563 83.6043 99.3947C84.0603 100.152 85.0145 100.602 85.9784 100.514C87.2056 100.401 88.1974 99.8807 88.9253 98.967C89.3682 98.4115 89.5204 97.6913 89.3032 97.1745C89.1026 96.6975 88.605 96.3848 87.8246 96.2465C87.3326 96.1533 86.8334 96.0966 86.3318 96.0769C86.2691 96.0774 86.2075 96.0764 86.1471 96.0764L86.1465 96.0742ZM94.3677 108.566C94.2098 108.566 94.0542 108.566 93.9003 108.563C93.7464 108.56 93.6027 108.559 93.4539 108.559C93.3234 108.559 93.1923 108.559 93.0618 108.563C92.7449 108.566 92.4171 108.569 92.0859 108.557C91.3239 108.529 90.6558 108.175 90.2979 107.611C89.9484 107.06 89.9365 106.392 90.2659 105.784C90.731 104.931 91.2447 104.101 91.8049 103.299C91.986 103.034 92.2354 102.816 92.5303 102.663C92.8253 102.511 93.1565 102.43 93.4938 102.427H93.5001C93.83 102.428 94.1545 102.505 94.4444 102.651C94.7342 102.798 94.9804 103.009 95.1605 103.266C95.7415 104.084 96.2693 104.933 96.7411 105.81C97.0609 106.405 97.0467 107.06 96.7018 107.608C96.3495 108.168 95.6975 108.522 94.9576 108.555C94.7604 108.564 94.5626 108.566 94.3677 108.566ZM93.4528 107.075C93.6084 107.075 93.7646 107.075 93.9202 107.079C94.2548 107.083 94.5711 107.087 94.8829 107.072C95.0847 107.063 95.2466 106.985 95.3264 106.86C95.3959 106.75 95.3919 106.617 95.3161 106.475C94.8726 105.652 94.3767 104.854 93.8313 104.086C93.7969 104.033 93.7487 103.99 93.6911 103.959C93.6335 103.929 93.5685 103.913 93.5024 103.913C93.4303 103.914 93.3598 103.933 93.2975 103.967C93.2352 104 93.1831 104.048 93.1461 104.106C92.6168 104.863 92.1314 105.645 91.6921 106.45C91.6351 106.556 91.5832 106.715 91.6727 106.857C91.7548 106.986 91.9286 107.065 92.1486 107.073C92.4405 107.084 92.7335 107.081 93.0441 107.078C93.1798 107.078 93.3154 107.075 93.4511 107.075L93.4528 107.075ZM75.4881 99.2044C75.3203 99.2035 75.157 99.1535 75.0215 99.0614C74.886 98.9692 74.7853 98.8397 74.7335 98.6913C74.6817 98.5428 74.6816 98.383 74.7332 98.2345C74.7847 98.0859 74.8854 97.9563 75.0207 97.864C76.1562 97.0977 81.6755 92.9939 78.8095 87.4665C78.7627 87.3786 78.7351 87.2829 78.7283 87.185C78.7215 87.0871 78.7357 86.989 78.7699 86.8962C78.8042 86.8034 78.8579 86.7179 78.928 86.6445C78.998 86.5712 79.083 86.5115 79.1781 86.4689C79.2731 86.4263 79.3763 86.4016 79.4816 86.3963C79.587 86.3911 79.6924 86.4052 79.7918 86.4381C79.8912 86.4709 79.9826 86.5218 80.0608 86.5877C80.1389 86.6536 80.2022 86.7332 80.247 86.822C81.6852 89.595 81.5261 92.493 79.7876 95.196C78.4379 97.2975 76.5153 98.6877 75.9578 99.065C75.8211 99.1566 75.6566 99.2054 75.4881 99.2044ZM111.512 99.2044C111.344 99.2045 111.18 99.1549 111.044 99.0629C110.487 98.6866 108.564 97.2964 107.214 95.1939C105.476 92.4877 105.317 89.5918 106.755 86.8199C106.848 86.6448 107.012 86.5109 107.211 86.4474C107.41 86.3839 107.627 86.3959 107.817 86.4808C108.006 86.5657 108.152 86.7166 108.222 86.9007C108.292 87.0849 108.282 87.2875 108.192 87.4644C105.325 92.9918 110.844 97.0955 111.98 97.864C112.115 97.9563 112.215 98.0859 112.267 98.2345C112.319 98.383 112.319 98.5428 112.267 98.6913C112.215 98.8397 112.114 98.9692 111.979 99.0614C111.843 99.1535 111.68 99.2035 111.512 99.2044Z" fill="black"/>
<defs>
<filter id="filter0_d_2062_3" x="0" y="0" width="508" height="308" filterUnits="userSpaceOnUse" color-interpolation-filters="sRGB">
<feFlood flood-opacity="0" result="BackgroundImageFix"/>
<feColorMatrix in="SourceAlpha" type="matrix" values="0 0 0 0 0 0 0 0 0 0 0 0 0 0 0 0 0 0 127 0" result="hardAlpha"/>
<feOffset dy="4"/>
<feGaussianBlur stdDeviation="2"/>
<feComposite in2="hardAlpha" operator="out"/>
<feColorMatrix type="matrix" values="0 0 0 0 0 0 0 0 0 0 0 0 0 0 0 0 0 0 0.25 0"/>
<feBlend mode="normal" in2="BackgroundImageFix" result="effect1_dropShadow_2062_3"/>
<feBlend mode="normal" in="SourceGraphic" in2="effect1_dropShadow_2062_3" result="shape"/>
</filter>
</defs>
</svg>
