<svg width="55" height="55" viewBox="0 0 55 55" fill="none" xmlns="http://www.w3.org/2000/svg">
<path d="M48.125 26.3542C48.1329 29.3789 47.4262 32.3627 46.0625 35.0626C44.4456 38.2978 41.9598 41.019 38.8837 42.9213C35.8076 44.8237 32.2626 45.832 28.6458 45.8334C25.6211 45.8413 22.6373 45.1346 19.9375 43.7709L6.875 48.1251L11.2292 35.0626C9.86547 32.3627 9.15878 29.3789 9.16667 26.3542C9.16807 22.7374 10.1764 19.1924 12.0787 16.1163C13.9811 13.0402 16.7023 10.5545 19.9375 8.93757C22.6373 7.57387 25.6211 6.86718 28.6458 6.87507H29.7917C34.5683 7.13859 39.0799 9.15473 42.4626 12.5375C45.8453 15.9202 47.8615 20.4318 48.125 25.2084V26.3542Z" stroke="#2E3093" stroke-width="4" stroke-linecap="round" stroke-linejoin="round"/>
<path d="M37.9994 32.2252V35.0854C38.0005 35.3509 37.946 35.6138 37.8394 35.8571C37.7328 36.1004 37.5765 36.3188 37.3804 36.4983C37.1844 36.6778 36.9529 36.8144 36.7009 36.8995C36.4489 36.9846 36.1818 37.0162 35.9168 36.9923C32.9772 36.6735 30.1534 35.671 27.6725 34.0653C25.3643 32.6014 23.4073 30.6484 21.9406 28.3447C20.3261 25.8574 19.3213 23.0256 19.0078 20.0786C18.9839 19.8149 19.0153 19.5492 19.0999 19.2983C19.1846 19.0474 19.3207 18.8169 19.4995 18.6214C19.6783 18.4258 19.896 18.2696 20.1386 18.1627C20.3813 18.0557 20.6436 18.0003 20.9088 18.0001H23.7748C24.2384 17.9955 24.6879 18.1594 25.0394 18.4611C25.3909 18.7628 25.6205 19.1818 25.6854 19.64C25.8064 20.5553 26.0307 21.4541 26.3541 22.3191C26.4827 22.6603 26.5105 23.0312 26.4343 23.3878C26.3581 23.7443 26.1811 24.0716 25.9242 24.3308L24.711 25.5417C26.0709 27.9286 28.0512 29.9049 30.4429 31.2622L31.6561 30.0513C31.9159 29.795 32.2438 29.6184 32.601 29.5423C32.9583 29.4663 33.3299 29.494 33.6718 29.6223C34.5386 29.9451 35.4391 30.169 36.3563 30.2897C36.8203 30.355 37.2441 30.5883 37.5471 30.9452C37.8501 31.302 38.011 31.7576 37.9994 32.2252Z" stroke="#2E3093" stroke-width="3" stroke-linecap="round" stroke-linejoin="round"/>
</svg>
