<svg width="460" height="460" viewBox="0 0 460 460" fill="none" xmlns="http://www.w3.org/2000/svg">
<mask id="path-1-inside-1_2053_2" fill="white">
<path d="M397.5 57C416.554 57 432 72.4462 432 91.5C432 93.3945 431.845 95.2529 431.551 97.0645C427.474 140.711 414.845 183.138 394.371 221.923C373.406 261.638 344.646 296.717 309.813 325.062C274.98 353.408 234.788 374.438 191.642 386.895C149.655 399.016 105.709 402.776 62.2949 397.976C43.7992 397.341 29 382.15 29 363.5C29 344.446 44.4462 329 63.5 329C64.6845 329 65.855 329.059 67.0088 329.176L67.0234 329.061C92.3553 332.14 118.098 331.559 143.451 327.245C187.591 319.735 229.109 301.162 264.128 273.262C299.147 245.362 326.526 209.043 343.709 167.697C354.284 142.25 360.784 115.408 363.07 88.1533L363.16 88.1602C364.84 70.6735 379.573 57 397.5 57ZM258 46C277.33 46 293 61.67 293 81C293 84.5155 292.479 87.9092 291.515 91.1104C288.112 114.141 280.634 136.403 269.412 156.845C257.014 179.429 240.288 199.351 220.19 215.472C200.093 231.592 177.017 243.597 152.28 250.8C129.384 257.466 105.481 259.895 81.7422 257.99C81.4954 257.995 81.248 258 81 258C61.6702 258 46.0002 242.33 46 223C46.0002 203.67 61.6702 188 81 188C83.1528 188 85.2602 188.194 87.3057 188.566C102.52 189.735 117.832 188.156 132.504 183.884C148.507 179.224 163.437 171.458 176.438 161.028C189.44 150.599 200.261 137.711 208.282 123.1C216.245 108.595 221.292 92.6742 223.145 76.2344L223.321 76.2529C225.638 59.1685 240.28 46 258 46Z"/>
</mask>
<path d="M397.5 57C416.554 57 432 72.4462 432 91.5C432 93.3945 431.845 95.2529 431.551 97.0645C427.474 140.711 414.845 183.138 394.371 221.923C373.406 261.638 344.646 296.717 309.813 325.062C274.98 353.408 234.788 374.438 191.642 386.895C149.655 399.016 105.709 402.776 62.2949 397.976C43.7992 397.341 29 382.15 29 363.5C29 344.446 44.4462 329 63.5 329C64.6845 329 65.855 329.059 67.0088 329.176L67.0234 329.061C92.3553 332.14 118.098 331.559 143.451 327.245C187.591 319.735 229.109 301.162 264.128 273.262C299.147 245.362 326.526 209.043 343.709 167.697C354.284 142.25 360.784 115.408 363.07 88.1533L363.16 88.1602C364.84 70.6735 379.573 57 397.5 57ZM258 46C277.33 46 293 61.67 293 81C293 84.5155 292.479 87.9092 291.515 91.1104C288.112 114.141 280.634 136.403 269.412 156.845C257.014 179.429 240.288 199.351 220.19 215.472C200.093 231.592 177.017 243.597 152.28 250.8C129.384 257.466 105.481 259.895 81.7422 257.99C81.4954 257.995 81.248 258 81 258C61.6702 258 46.0002 242.33 46 223C46.0002 203.67 61.6702 188 81 188C83.1528 188 85.2602 188.194 87.3057 188.566C102.52 189.735 117.832 188.156 132.504 183.884C148.507 179.224 163.437 171.458 176.438 161.028C189.44 150.599 200.261 137.711 208.282 123.1C216.245 108.595 221.292 92.6742 223.145 76.2344L223.321 76.2529C225.638 59.1685 240.28 46 258 46Z" fill="#2E3093"/>
<path d="M431.551 97.0645L426.615 96.2641L426.588 96.431L426.572 96.5994L431.551 97.0645ZM394.371 221.923L398.793 224.257V224.257L394.371 221.923ZM309.813 325.062L312.969 328.941V328.941L309.813 325.062ZM191.642 386.895L193.028 391.698L191.642 386.895ZM62.2949 397.976L62.8444 393.006L62.656 392.985L62.4665 392.979L62.2949 397.976ZM67.0088 329.176L66.5063 334.15L71.3544 334.64L71.9689 329.806L67.0088 329.176ZM67.0234 329.061L67.6268 324.097L62.6904 323.497L62.0634 328.43L67.0234 329.061ZM143.451 327.245L144.29 332.174H144.29L143.451 327.245ZM264.128 273.262L267.244 277.172L264.128 273.262ZM343.709 167.697L348.326 169.616V169.616L343.709 167.697ZM363.07 88.1533L363.45 83.1677L358.503 82.7913L358.088 87.7353L363.07 88.1533ZM363.16 88.1602L362.781 93.1457L367.669 93.5176L368.137 88.6383L363.16 88.1602ZM291.515 91.1104L286.727 89.6681L286.622 90.018L286.568 90.3795L291.515 91.1104ZM269.412 156.845L273.795 159.251L273.795 159.251L269.412 156.845ZM220.19 215.472L223.319 219.372H223.319L220.19 215.472ZM152.28 250.8L153.678 255.6H153.678L152.28 250.8ZM81.7422 257.99L82.1421 253.006L81.8905 252.986L81.6382 252.991L81.7422 257.99ZM46 223L41 223V223L46 223ZM87.3057 188.566L86.4107 193.486L86.665 193.532L86.9228 193.552L87.3057 188.566ZM132.504 183.884L133.902 188.684H133.902L132.504 183.884ZM176.438 161.028L179.567 164.929L179.567 164.929L176.438 161.028ZM208.282 123.1L212.665 125.506L212.665 125.506L208.282 123.1ZM223.145 76.2344L223.667 71.2617L218.732 70.7437L218.176 75.6744L223.145 76.2344ZM223.321 76.2529L222.799 81.2256L227.624 81.7321L228.276 76.9248L223.321 76.2529ZM397.5 57V62C413.792 62 427 75.2076 427 91.5H432H437C437 69.6848 419.315 52 397.5 52V57ZM432 91.5H427C427 93.1205 426.867 94.7112 426.615 96.2641L431.551 97.0645L436.486 97.8648C436.822 95.7946 437 93.6686 437 91.5H432ZM431.551 97.0645L426.572 96.5994C422.556 139.592 410.117 181.385 389.949 219.589L394.371 221.923L398.793 224.257C419.573 184.892 432.391 141.829 436.529 97.5295L431.551 97.0645ZM394.371 221.923L389.949 219.589C369.298 258.709 340.969 293.263 306.658 321.184L309.813 325.062L312.969 328.941C348.324 300.171 377.514 264.566 398.793 224.257L394.371 221.923ZM309.813 325.062L306.658 321.184C272.346 349.105 232.756 369.821 190.255 382.091L191.642 386.895L193.028 391.698C236.821 379.055 277.615 357.71 312.969 328.941L309.813 325.062ZM191.642 386.895L190.255 382.091C148.896 394.031 105.608 397.734 62.8444 393.006L62.2949 397.976L61.7454 402.945C105.809 407.817 150.413 404.001 193.028 391.698L191.642 386.895ZM62.2949 397.976L62.4665 392.979C46.6538 392.436 34 379.446 34 363.5H29H24C24 384.855 40.9446 402.246 62.1234 402.973L62.2949 397.976ZM29 363.5H34C34 347.208 47.2076 334 63.5 334V329V324C41.6848 324 24 341.685 24 363.5H29ZM63.5 329V334C64.5177 334 65.5205 334.051 66.5063 334.15L67.0088 329.176L67.5113 324.201C66.1896 324.068 64.8513 324 63.5 324V329ZM67.0088 329.176L71.9689 329.806L71.9835 329.691L67.0234 329.061L62.0634 328.43L62.0487 328.545L67.0088 329.176ZM67.0234 329.061L66.4201 334.024C92.2295 337.161 118.458 336.569 144.29 332.174L143.451 327.245L142.612 322.316C117.738 326.548 92.4811 327.118 67.6268 324.097L67.0234 329.061ZM143.451 327.245L144.29 332.174C189.263 324.522 231.564 305.599 267.244 277.172L264.128 273.262L261.012 269.351C226.654 296.725 185.92 314.947 142.612 322.316L143.451 327.245ZM264.128 273.262L267.244 277.172C302.923 248.746 330.819 211.742 348.326 169.616L343.709 167.697L339.092 165.778C322.233 206.344 295.371 241.977 261.012 269.351L264.128 273.262ZM343.709 167.697L348.326 169.616C359.101 143.689 365.723 116.34 368.053 88.5713L363.07 88.1533L358.088 87.7353C355.844 114.476 349.468 140.812 339.092 165.778L343.709 167.697ZM363.07 88.1533L362.691 93.1389L362.781 93.1457L363.16 88.1602L363.539 83.1746L363.45 83.1677L363.07 88.1533ZM363.16 88.1602L368.137 88.6383C369.573 73.6911 382.174 62 397.5 62V57V52C376.972 52 360.107 67.6558 358.183 87.682L363.16 88.1602ZM258 46V51C274.569 51 288 64.4315 288 81H293H298C298 58.9086 280.091 41 258 41V46ZM293 81H288C288 84.019 287.553 86.927 286.727 89.6681L291.515 91.1104L296.302 92.5526C297.405 88.8914 298 85.0121 298 81H293ZM291.515 91.1104L286.568 90.3795C283.252 112.823 275.965 134.518 265.029 154.439L269.412 156.845L273.795 159.251C285.303 138.288 292.971 115.459 296.461 91.8412L291.515 91.1104ZM269.412 156.845L265.029 154.439C252.947 176.448 236.647 195.861 217.062 211.571L220.19 215.472L223.319 219.372C243.928 202.84 261.081 182.411 273.795 159.251L269.412 156.845ZM220.19 215.472L217.062 211.571C197.477 227.281 174.989 238.98 150.882 245.999L152.28 250.8L153.678 255.6C179.045 248.214 202.709 235.904 223.319 219.372L220.19 215.472ZM152.28 250.8L150.882 245.999C128.571 252.496 105.276 254.862 82.1421 253.006L81.7422 257.99L81.3423 262.974C105.685 264.927 130.198 262.437 153.678 255.6L152.28 250.8ZM81.7422 257.99L81.6382 252.991C81.3929 252.996 81.1912 253 81 253V258V263C81.3048 263 81.5979 262.994 81.8462 262.989L81.7422 257.99ZM81 258V253C64.4316 253 51.0002 239.568 51 223L46 223L41 223C41.0002 245.091 58.9087 263 81 263V258ZM46 223L51 223C51.0002 206.432 64.4316 193 81 193V188V183C58.9087 183 41.0002 200.909 41 223L46 223ZM81 188V193C82.8514 193 84.6593 193.167 86.4107 193.486L87.3057 188.566L88.2007 183.647C85.8612 183.222 83.4542 183 81 183V188ZM87.3057 188.566L86.9228 193.552C102.735 194.766 118.65 193.125 133.902 188.684L132.504 183.884L131.106 179.083C117.013 183.187 102.304 184.703 87.6885 183.581L87.3057 188.566ZM132.504 183.884L133.902 188.684C150.535 183.841 166.053 175.769 179.567 164.929L176.438 161.028L173.31 157.128C160.82 167.146 146.479 174.607 131.106 179.083L132.504 183.884ZM176.438 161.028L179.567 164.929C193.081 154.088 204.328 140.692 212.665 125.506L208.282 123.1L203.899 120.693C196.194 134.729 185.8 147.11 173.31 157.128L176.438 161.028ZM208.282 123.1L212.665 125.506C220.942 110.43 226.187 93.8814 228.113 76.7944L223.145 76.2344L218.176 75.6744C216.396 91.4671 211.548 106.761 203.899 120.693L208.282 123.1ZM223.145 76.2344L222.623 81.2071L222.799 81.2256L223.321 76.2529L223.843 71.2803L223.667 71.2617L223.145 76.2344ZM223.321 76.2529L228.276 76.9248C230.261 62.2854 242.816 51 258 51V46V41C237.744 41 221.015 56.0515 218.367 75.5811L223.321 76.2529Z" fill="#2E3093" mask="url(#path-1-inside-1_2053_2)"/>
</svg>
